<svg xmlns="http://www.w3.org/2000/svg" xmlns:xlink="http://www.w3.org/1999/xlink" width="23" height="19" viewBox="0 0 23 19">
  <defs>
    <clipPath id="clip-path">
      <path id="Path_25032" data-name="Path 25032" d="M34.992-32H30.008A2.113,2.113,0,0,0,28-29.781v1.562A2.113,2.113,0,0,0,30.008-26h4.983A2.113,2.113,0,0,0,37-28.219v-1.562A2.113,2.113,0,0,0,34.992-32ZM36-27.837a.85.85,0,0,1-.923.837H29.923A.85.85,0,0,1,29-27.837v-1.326A.85.85,0,0,1,29.923-30h5.154a.85.85,0,0,1,.923.837Zm10.922-7.908-1.1-5.786A.571.571,0,0,0,45.279-42H25.721a.523.523,0,0,0-.548.469l-.939,4.77A3.136,3.136,0,0,0,24-35.588a3.19,3.19,0,0,0,1.643,2.815v8.053A1.736,1.736,0,0,0,27.364-23H38.316a.617.617,0,0,0,.626-.626v-7.193h3.129v7.193A.617.617,0,0,0,42.7-23h1.1a1.736,1.736,0,0,0,1.721-1.72v-8.21A3.266,3.266,0,0,0,47-35.432.47.47,0,0,0,46.922-35.745Zm-2,11.224a.53.53,0,0,1-.562.521h-.562v-6.769a.61.61,0,0,0-.643-.6h-4.42a.613.613,0,0,0-.643.6V-24H27.563A.53.53,0,0,1,27-24.521v-7.215c.161,0,.321.074.482.074A3.6,3.6,0,0,0,30.295-33a3.478,3.478,0,0,0,2.812,1.339A3.478,3.478,0,0,0,35.92-33a3.478,3.478,0,0,0,2.813,1.339A3.478,3.478,0,0,0,41.545-33a3.478,3.478,0,0,0,2.813,1.339A1.684,1.684,0,0,0,45-31.736v7.215Zm1-10.512A2.088,2.088,0,0,1,43.764-33a2.088,2.088,0,0,1-2.156-2.032.612.612,0,0,0-.639-.6.571.571,0,0,0-.639.6A2.088,2.088,0,0,1,38.175-33a2.088,2.088,0,0,1-2.156-2.032.612.612,0,0,0-.639-.6.571.571,0,0,0-.639.6A2.088,2.088,0,0,1,32.586-33a2.088,2.088,0,0,1-2.156-2.032.612.612,0,0,0-.639-.6c-.4,0-.479.3-.479.6A2.088,2.088,0,0,1,27.156-33,2.088,2.088,0,0,1,25-35.032a2.541,2.541,0,0,1,.16-.753v-.075L26.038-40h19L46-35.108Z" fill="none" stroke="#707070" stroke-width="1"/>
    </clipPath>
    <clipPath id="clip-path-2">
      <path id="Path_25031" data-name="Path 25031" d="M0,0H375V-792H0Z" fill="none"/>
    </clipPath>
  </defs>
  <g id="Grocery" transform="translate(-24 42)" clip-path="url(#clip-path)">
    <g id="Group_20747" data-name="Group 20747" clip-path="url(#clip-path-2)">
      <path id="Path_25030" data-name="Path 25030" d="M19-47H52v29H19Z" fill="#949494"/>
    </g>
  </g>
</svg>
