<svg xmlns="http://www.w3.org/2000/svg" width="23" height="22.984" viewBox="0 0 23 22.984">
  <g id="Walet" transform="translate(-330.5 -746.516)">
    <path id="Path_20186" data-name="Path 20186" d="M19.25,0H2.75A2.907,2.907,0,0,0,0,2.742V14.469A2.535,2.535,0,0,0,2.539,17H19.461A2.535,2.535,0,0,0,22,14.469V2.657A2.835,2.835,0,0,0,19.25,0Z" transform="translate(331 752)" fill="none" stroke="#949494" stroke-linecap="round" stroke-linejoin="round" stroke-width="1"/>
    <path id="Path_20187" data-name="Path 20187" d="M17,3.82V1.989C17,.164,16.618-.362,14.422.235,12.809.674,3.372,3.372,3.372,3.372.465,4.5.022,5.464.022,7.655L0,9" transform="translate(331 747)" fill="none" stroke="#949494" stroke-linejoin="round" stroke-width="1"/>
    <path id="Path_27463" data-name="Path 27463" d="M348.5-30a1.5,1.5,0,0,1-1.5-1.5,1.5,1.5,0,0,1,1.5-1.5,1.5,1.5,0,0,1,1.5,1.5A1.5,1.5,0,0,1,348.5-30Z" transform="translate(0 792)" fill="none" stroke="#707070" stroke-width="0.8"/>
  </g>
</svg>
